<?xml version="1.0" encoding="utf-8"?>
<!-- Generator: Adobe Illustrator 16.0.4, SVG Export Plug-In . SVG Version: 6.00 Build 0)  -->
<!DOCTYPE svg PUBLIC "-//W3C//DTD SVG 1.1//EN" "http://www.w3.org/Graphics/SVG/1.1/DTD/svg11.dtd">
<svg version="1.1" id="Layer_1" xmlns="http://www.w3.org/2000/svg" xmlns:xlink="http://www.w3.org/1999/xlink" x="0px" y="0px"
	 width="64px" height="64px" viewBox="0 0 64 64" enable-background="new 0 0 64 64" xml:space="preserve">
<path fill="none" stroke="#000000" stroke-width="2" stroke-miterlimit="10" d="M5.841,64.598"/>
<path fill="none" stroke="#000000" stroke-width="2" stroke-miterlimit="10" d="M17.365,57.971"/>
<ellipse cx="31.53" cy="3.821" rx="2.475" ry="1.408"/>
<circle cx="31.53" cy="34.104" r="24.914"/>
<circle fill="#FFFFFF" cx="31.53" cy="34.103" r="2.849"/>
<line fill="none" stroke="#FFFFFF" stroke-miterlimit="10" x1="31.53" y1="10.74" x2="31.53" y2="16.445"/>
<line fill="none" stroke="#FFFFFF" stroke-miterlimit="10" x1="31.53" y1="51.101" x2="31.53" y2="56.805"/>
<line fill="none" stroke="#FFFFFF" stroke-miterlimit="10" x1="48.524" y1="34.757" x2="54.23" y2="34.757"/>
<line fill="none" stroke="#FFFFFF" stroke-miterlimit="10" x1="8.829" y1="34.757" x2="14.535" y2="34.757"/>
<line fill="none" stroke="#FFFFFF" stroke-miterlimit="10" x1="15.348" y1="17.625" x2="19.383" y2="21.66"/>
<line fill="none" stroke="#FFFFFF" stroke-miterlimit="10" x1="42.551" y1="46.109" x2="46.584" y2="50.143"/>
<line fill="none" stroke="#FFFFFF" stroke-miterlimit="10" x1="45.563" y1="23.678" x2="49.599" y2="19.643"/>
<line fill="none" stroke="#FFFFFF" stroke-miterlimit="10" x1="16.643" y1="51.099" x2="20.678" y2="47.064"/>
<polygon fill="#FFFFFF" points="29.973,32.361 31.53,19.643 33.085,32.361 "/>
<polygon fill="#FFFFFF" points="31.368,32.643 39.116,28.229 32.661,34.382 "/>
<path d="M42.937,6.372C41.61,10.52,58.225,20.807,59.552,16.658c1.328-4.145-1.315-9.81-5.901-12.651
	C49.059,1.166,44.265,2.227,42.937,6.372z"/>
<line fill="none" stroke="#000000" stroke-width="2" stroke-miterlimit="10" x1="31.368" y1="8.514" x2="31.368" y2="3.821"/>
<path d="M20.124,6.372C21.45,10.52,4.835,20.807,3.508,16.658C2.18,12.513,4.824,6.848,9.41,4.007
	C14.001,1.166,18.794,2.227,20.124,6.372z"/>
</svg>
