<?xml version="1.0" encoding="utf-8"?>
<!-- Generator: Adobe Illustrator 16.0.4, SVG Export Plug-In . SVG Version: 6.00 Build 0)  -->
<!DOCTYPE svg PUBLIC "-//W3C//DTD SVG 1.1//EN" "http://www.w3.org/Graphics/SVG/1.1/DTD/svg11.dtd">
<svg version="1.1" id="Layer_1" xmlns="http://www.w3.org/2000/svg" xmlns:xlink="http://www.w3.org/1999/xlink" x="0px" y="0px"
	 width="124.182px" height="124.346px" viewBox="0 0 124.182 124.346" enable-background="new 0 0 124.182 124.346"
	 xml:space="preserve">
<polygon fill="#424242" stroke="#231F20" stroke-miterlimit="10" points="25.003,12.504 38.836,22.171 50.836,17.004 54.003,0.504 
	70.169,0.671 73.336,17.171 84.669,21.838 98.669,12.338 110.669,23.838 101.169,36.838 106.836,49.004 123.169,52.338 
	123.669,68.505 107.336,71.171 102.669,85.005 112.503,98.505 101.504,109.671 88.337,100.671 74.004,107.171 70.837,123.504 
	55.337,123.837 52.67,107.67 38.17,102.004 24.17,111.337 13.004,100.17 22.671,86.337 16.837,72.337 0.671,69.504 0.505,53.67 
	17.172,50.837 22.672,37.671 13.505,23.504 "/>
<circle fill="#FFFFFF" stroke="#231F20" stroke-miterlimit="10" cx="62.422" cy="61.753" r="16.917"/>
</svg>
