<?xml version="1.0" encoding="utf-8"?>
<!-- Generator: Adobe Illustrator 17.0.0, SVG Export Plug-In . SVG Version: 6.00 Build 0)  -->
<!DOCTYPE svg PUBLIC "-//W3C//DTD SVG 1.1//EN" "http://www.w3.org/Graphics/SVG/1.1/DTD/svg11.dtd">
<svg version="1.1" id="Layer_1" xmlns="http://www.w3.org/2000/svg" xmlns:xlink="http://www.w3.org/1999/xlink" x="0px" y="0px"
	 width="768px" height="768px" viewBox="0 0 768 768" enable-background="new 0 0 768 768" xml:space="preserve">
<g>
	<g>
		<path d="M204.59,318.205c35.623,0,71.246,0,106.868,0c63.852,0,127.704,0,191.556,0c28.303,0,56.606,0,84.909,0
			c19.346,0,19.346-30,0-30c-35.623,0-71.246,0-106.868,0c-63.852,0-127.704,0-191.556,0c-28.303,0-56.606,0-84.909,0
			C185.244,288.205,185.244,318.205,204.59,318.205L204.59,318.205z"/>
	</g>
</g>
<g>
	<g>
		<path d="M204.59,481.197c35.623,0,71.246,0,106.868,0c63.852,0,127.704,0,191.556,0c28.303,0,56.606,0,84.909,0
			c19.346,0,19.346-30,0-30c-35.623,0-71.246,0-106.868,0c-63.852,0-127.704,0-191.556,0c-28.303,0-56.606,0-84.909,0
			C185.244,451.197,185.244,481.197,204.59,481.197L204.59,481.197z"/>
	</g>
</g>
<g>
	<g>
		<path d="M204.59,400.384c35.623,0,71.246,0,106.868,0c63.852,0,127.704,0,191.556,0c28.303,0,56.606,0,84.909,0
			c19.346,0,19.346-30,0-30c-35.623,0-71.246,0-106.868,0c-63.852,0-127.704,0-191.556,0c-28.303,0-56.606,0-84.909,0
			C185.244,370.384,185.244,400.384,204.59,400.384L204.59,400.384z"/>
	</g>
</g>
</svg>
