<?xml version="1.0" encoding="utf-8"?>
<!-- Generator: Adobe Illustrator 17.0.0, SVG Export Plug-In . SVG Version: 6.00 Build 0)  -->
<!DOCTYPE svg PUBLIC "-//W3C//DTD SVG 1.1//EN" "http://www.w3.org/Graphics/SVG/1.1/DTD/svg11.dtd">
<svg version="1.1" id="Layer_1" xmlns="http://www.w3.org/2000/svg" xmlns:xlink="http://www.w3.org/1999/xlink" x="0px" y="0px"
	 width="1260.5px" height="1260.5px" viewBox="0 0 1260.5 1260.5" enable-background="new 0 0 1260.5 1260.5" xml:space="preserve">
<g>
	<g>
		<g>
			<path d="M980.638,313.21c-23.936,160.707-47.868,321.414-71.804,482.117c-14.15,95.002-28.299,190.007-42.449,285.013
				c-3.209,21.547,29.714,30.818,32.95,9.082c23.936-160.707,47.868-321.414,71.804-482.117
				c14.15-95.005,28.299-190.007,42.449-285.013C1016.796,300.749,983.877,291.479,980.638,313.21L980.638,313.21z"/>
		</g>
	</g>
	<g>
		<g>
			<path d="M292.242,601.059c125.919,105.424,251.834,210.847,377.753,316.275c66.593,55.755,133.187,111.509,199.78,167.268
				c16.77,14.04,41.075-9.998,24.161-24.161C768.017,955.016,642.102,849.593,516.183,744.166
				c-66.593-55.755-133.187-111.509-199.78-167.267C299.633,562.854,275.328,586.896,292.242,601.059L292.242,601.059z"/>
		</g>
	</g>
	<g>
		<g>
			<path d="M377.81,1101.966c163.717,0,327.438,0,491.155,0c4.633,0,9.263,0,13.897,0c22.036,0,22.036-34.17,0-34.17
				c-163.717,0-327.438,0-491.155,0c-4.633,0-9.263,0-13.897,0C355.777,1067.797,355.777,1101.966,377.81,1101.966L377.81,1101.966z
				"/>
		</g>
	</g>
	<g>
		<g>
			<path d="M247.083,318.879c23.936,160.707,47.868,321.414,71.804,482.117c14.15,95.005,28.299,190.007,42.449,285.013
				c3.236,21.732,36.158,12.462,32.95-9.082C370.35,916.22,346.418,755.513,322.482,594.81
				c-14.15-95.005-28.299-190.007-42.449-285.013C276.797,288.062,243.875,297.332,247.083,318.879L247.083,318.879z"/>
		</g>
	</g>
	<g>
		<g>
			<path d="M263.56,331.423c165.149,0,330.298,0,495.447,0c79.369,0,158.739,0,238.108,0c22.036,0,22.036-34.17,0-34.17
				c-165.149,0-330.298,0-495.447,0c-79.369,0-158.739,0-238.108,0C241.524,297.253,241.524,331.423,263.56,331.423L263.56,331.423z
				"/>
		</g>
	</g>
	<g>
		<g>
			<path d="M265.507,357.672c122.785,100.705,245.571,201.41,368.356,302.115c88.653,72.713,177.31,145.426,265.963,218.136
				c16.887,13.852,41.212-10.179,24.161-24.161c-122.785-100.705-245.571-201.41-368.356-302.115
				c-88.653-72.713-177.31-145.426-265.963-218.136C272.782,319.662,248.457,343.69,265.507,357.672L265.507,357.672z"/>
		</g>
	</g>
	<g>
		<g>
			<path d="M483.941,329.311c134.342,103.452,268.686,206.901,403.028,310.353c13.582,10.459,27.165,20.919,40.747,31.378
				c17.461,13.446,34.443-16.261,17.245-29.506C810.62,538.085,676.275,434.636,541.933,331.184
				c-13.582-10.459-27.165-20.919-40.747-31.378C483.725,286.36,466.743,316.07,483.941,329.311L483.941,329.311z"/>
		</g>
	</g>
	<g>
		<g>
			<path d="M331.875,847.884c108.062,83.214,216.123,166.423,324.181,249.637c17.461,13.446,34.443-16.261,17.245-29.505
				C565.24,984.802,457.179,901.592,349.121,818.378C331.66,804.933,314.678,834.64,331.875,847.884L331.875,847.884z"/>
		</g>
	</g>
	<g>
		<g>
			<path d="M741.194,333.948c73.888,56.896,147.774,113.792,221.662,170.691c17.461,13.446,34.443-16.261,17.245-29.506
				c-73.888-56.896-147.774-113.792-221.662-170.691C740.979,291,723.996,320.707,741.194,333.948L741.194,333.948z"/>
		</g>
	</g>
	<path stroke="#000000" stroke-width="5" stroke-miterlimit="10" d="M1017.787,256.311c0-9.434-7.651-17.085-17.085-17.085H266.977
		c-9.434,0-17.085,7.651-17.085,17.085l0,0c0,9.434,7.651,17.085,17.085,17.085h733.729
		C1010.14,273.396,1017.787,265.749,1017.787,256.311L1017.787,256.311z"/>
	<path stroke="#000000" stroke-miterlimit="10" d="M791.129,247.769c0,10.381-71.404,18.793-159.487,18.793l0,0
		c-88.083,0-159.487-8.413-159.487-18.793v-48.975c0-10.381,71.404-18.793,159.487-18.793l0,0
		c88.083,0,159.487,8.413,159.487,18.793V247.769z"/>
	<g>
		<g>
			<g>
				<path d="M941.483,579.136C815.564,684.56,689.649,789.983,563.73,895.411c-66.593,55.755-133.187,111.509-199.78,167.268
					c-16.914,14.163,7.391,38.202,24.161,24.161C514.03,981.416,639.946,875.992,765.864,770.565
					c66.593-55.755,133.187-111.509,199.78-167.267C982.562,589.138,958.257,565.096,941.483,579.136L941.483,579.136z"/>
			</g>
		</g>
		<g>
			<g>
				<path d="M968.221,335.752C845.435,436.457,722.65,537.162,599.865,637.867c-88.653,72.713-177.31,145.426-265.963,218.136
					c-17.051,13.982,7.275,38.014,24.161,24.161c122.785-100.705,245.571-201.41,368.356-302.115
					c88.653-72.713,177.31-145.426,265.963-218.136C1009.429,345.928,985.107,321.9,968.221,335.752L968.221,335.752z"/>
			</g>
		</g>
		<g>
			<g>
				<path d="M756.703,302.047C622.362,405.499,488.017,508.948,353.675,612.4c-13.582,10.459-27.165,20.919-40.747,31.378
					c-17.198,13.241-0.215,42.951,17.245,29.506C464.515,569.832,598.86,466.383,733.201,362.931
					c13.583-10.459,27.165-20.919,40.747-31.378C791.143,318.309,774.164,288.601,756.703,302.047L756.703,302.047z"/>
			</g>
		</g>
		<g>
			<g>
				<path d="M908.769,820.617C800.707,903.83,692.646,987.04,584.587,1070.253c-17.198,13.241-0.215,42.951,17.245,29.506
					c108.062-83.214,216.123-166.424,324.181-249.637C943.208,836.881,926.229,807.171,908.769,820.617L908.769,820.617z"/>
			</g>
		</g>
		<g>
			<g>
				<path d="M512.414,302.847c-74.579,57.429-149.158,114.858-223.733,172.287c-17.198,13.241-0.215,42.951,17.245,29.506
					c74.579-57.429,149.158-114.858,223.733-172.287C546.857,319.112,529.875,289.401,512.414,302.847L512.414,302.847z"/>
			</g>
		</g>
	</g>
</g>
</svg>
