<?xml version="1.0" encoding="utf-8"?>
<!-- Generator: Adobe Illustrator 17.0.0, SVG Export Plug-In . SVG Version: 6.00 Build 0)  -->
<!DOCTYPE svg PUBLIC "-//W3C//DTD SVG 1.1//EN" "http://www.w3.org/Graphics/SVG/1.1/DTD/svg11.dtd">
<svg version="1.1" id="Layer_1" xmlns="http://www.w3.org/2000/svg" xmlns:xlink="http://www.w3.org/1999/xlink" x="0px" y="0px"
	 width="768px" height="768px" viewBox="0 0 768 768" enable-background="new 0 0 768 768" xml:space="preserve">
<g>
	<g id="XMLID_1_">
		<g>
			<g>
				<polygon points="468.95,178.85 468.95,571.15 261.26,473.72 84.33,473.72 84.33,276.28 261.26,276.28 				"/>
				<g>
					<path d="M461.45,178.85c0,34.993,0,69.986,0,104.979c0,64.021,0,128.043,0,192.064c0,31.752,0,63.505,0,95.257
						c3.762-2.159,7.524-4.317,11.285-6.476c-42.822-20.089-85.645-40.177-128.467-60.266
						c-23.181-10.875-46.363-21.749-69.544-32.624c-3.67-1.722-9.296-5.564-13.531-5.564c-6.069,0-12.137,0-18.206,0
						c-52.477,0-104.954,0-157.43,0c-0.409,0-0.818,0-1.226,0c2.5,2.5,5,5,7.5,7.5c0-49.339,0-98.677,0-148.016
						c0-16.475,0-32.95,0-49.424c-2.5,2.5-5,5-7.5,7.5c49.886,0,99.772,0,149.658,0c8.476,0,16.952,0,25.429,0
						c3.976,0,7.137-1.731,10.658-3.383c20.972-9.838,41.944-19.677,62.917-29.515c46.294-21.717,92.588-43.434,138.882-65.151
						c0.288-0.135,0.575-0.27,0.862-0.405c8.752-4.106,1.131-17.034-7.571-12.952c-42.822,20.089-85.645,40.177-128.467,60.266
						c-26.408,12.388-52.815,24.776-79.223,37.164c1.262-0.341,2.524-0.683,3.785-1.024c-49.886,0-99.772,0-149.658,0
						c-9.091,0-18.181,0-27.272,0c-4.088,0-7.5,3.412-7.5,7.5c0,49.339,0,98.677,0,148.016c0,16.475,0,32.95,0,49.424
						c0,4.088,3.412,7.5,7.5,7.5c49.886,0,99.772,0,149.658,0c9.091,0,18.181,0,27.272,0c-1.262-0.341-2.524-0.683-3.785-1.024
						c42.822,20.089,85.645,40.177,128.467,60.266c26.408,12.388,52.815,24.776,79.223,37.164
						c5.011,2.351,11.285-0.402,11.285-6.476c0-34.993,0-69.986,0-104.979c0-64.021,0-128.043,0-192.064c0-31.752,0-63.505,0-95.257
						C476.45,169.177,461.45,169.177,461.45,178.85z"/>
				</g>
			</g>
		</g>
		<g>
			<g>
				<g>
					<path d="M76.83,276.28c0,49.339,0,98.677,0,148.016c0,16.475,0,32.95,0,49.424c0,9.673,15,9.673,15,0
						c0-49.339,0-98.677,0-148.016c0-16.475,0-32.95,0-49.424C91.83,266.607,76.83,266.607,76.83,276.28L76.83,276.28z"/>
				</g>
			</g>
			<g>
				<g>
					<path d="M84.33,481.22c49.886,0,99.772,0,149.658,0c9.091,0,18.181,0,27.272,0c9.673,0,9.673-15,0-15
						c-49.886,0-99.772,0-149.658,0c-9.091,0-18.181,0-27.272,0C74.657,466.22,74.657,481.22,84.33,481.22L84.33,481.22z"/>
				</g>
			</g>
			<g>
				<g>
					<path d="M84.33,283.78c49.886,0,99.772,0,149.658,0c9.091,0,18.181,0,27.272,0c9.673,0,9.673-15,0-15
						c-49.886,0-99.772,0-149.658,0c-9.091,0-18.181,0-27.272,0C74.657,268.78,74.657,283.78,84.33,283.78L84.33,283.78z"/>
				</g>
			</g>
			<g>
				<g>
					<path d="M257.475,480.196c42.822,20.089,85.645,40.177,128.467,60.266c26.408,12.388,52.815,24.776,79.223,37.164
						c8.702,4.082,16.323-8.846,7.571-12.952c-42.822-20.089-85.645-40.177-128.467-60.266
						c-26.408-12.388-52.815-24.776-79.223-37.164C256.343,463.162,248.723,476.09,257.475,480.196L257.475,480.196z"/>
				</g>
			</g>
			<g>
				<g>
					<path d="M265.045,282.756c42.822-20.089,85.645-40.177,128.467-60.266c26.408-12.388,52.815-24.776,79.223-37.164
						c8.752-4.106,1.131-17.034-7.571-12.952c-42.822,20.089-85.645,40.177-128.467,60.266
						c-26.408,12.388-52.815,24.776-79.223,37.164C248.723,273.91,256.343,286.838,265.045,282.756L265.045,282.756z"/>
				</g>
			</g>
			<g>
				<g>
					<path d="M461.45,178.85c0,34.993,0,69.986,0,104.979c0,64.021,0,128.043,0,192.064c0,31.752,0,63.505,0,95.257
						c0,9.673,15,9.673,15,0c0-34.993,0-69.986,0-104.979c0-64.021,0-128.043,0-192.064c0-31.752,0-63.505,0-95.257
						C476.45,169.177,461.45,169.177,461.45,178.85L461.45,178.85z"/>
				</g>
			</g>
		</g>
	</g>
	<g>
		<g>
			<path d="M559.629,522.093c33.498-34.549,54.06-79.188,58.727-127.048c4.516-46.32-7.662-93.887-33.264-132.66
				c-8.04-12.176-17.477-23.465-27.873-33.692c-6.899-6.786-17.511,3.815-10.607,10.607c33.212,32.67,53.718,76.367,57.136,122.882
				c3.404,46.314-10.439,92.343-37.878,129.675c-5.108,6.95-10.849,13.442-16.849,19.63
				C542.289,518.431,552.886,529.048,559.629,522.093L559.629,522.093z"/>
		</g>
	</g>
</g>
</svg>
